<svg xmlns="http://www.w3.org/2000/svg" viewBox="0 0 282.29 157.11"><defs><style>.cls-1{fill:#31afe1;}.cls-2{fill:#44a12b;}.cls-3{fill:#fff;}.cls-4{fill:#fd0;}.cls-5{fill:#e5352d;}</style></defs><g id="Ebene_2" data-name="Ebene 2"><g id="Ebene_1-2" data-name="Ebene 1"><rect class="cls-1" x="226.29" y="146.41" width="55.99" height="10.7"/><rect class="cls-2" x="2.32" y="146.41" width="55.99" height="10.7"/><rect class="cls-3" x="114.3" y="146.41" width="55.99" height="10.7"/><rect class="cls-4" x="58.31" y="146.41" width="55.99" height="10.7"/><rect class="cls-5" x="170.3" y="146.41" width="55.99" height="10.7"/><path class="cls-3" d="M35,43.26c0-6.76-4.51-11-10.73-11s-10.72,4.24-10.72,11,4.51,11,10.72,11S35,50,35,43.26M48.49,20.73V65.79H35V61.56c-3,3.42-7.39,5.49-13.43,5.49C9.73,67.05,0,56.69,0,43.26S9.73,19.47,21.54,19.47c6,0,10.45,2.07,13.43,5.49V20.73Z"/><rect class="cls-3" x="61.92" width="13.52" height="65.79"/><rect class="cls-3" x="88.71" width="13.52" height="65.79"/><path class="cls-3" d="M142.56,19.83V35.15C137,34.25,129,36.5,129,45.42V65.79H115.53V20.73H129v8c1.81-6,7.85-8.92,13.52-8.92"/><path class="cls-3" d="M151.43,20.73H165V65.79H151.43ZM150.08,8.65a8.11,8.11,0,0,1,16.22,0,8.11,8.11,0,0,1-16.22,0"/><path class="cls-3" d="M210.75,43.26c0-6.76-4.51-11-10.73-11s-10.72,4.23-10.72,11,4.5,11,10.72,11,10.73-4.24,10.73-11M224.27,2.7V65.79H210.75V61.56c-3,3.42-7.39,5.49-13.43,5.49-11.81,0-21.54-10.36-21.54-23.79s9.73-23.79,21.54-23.79c6,0,10.45,2.07,13.43,5.5V2.7Z"/><path class="cls-3" d="M268.86,38.57c-1.44-5.22-5.5-7.12-9.56-7.12-5.13,0-8.56,2.53-9.82,7.12ZM260.57,55a11.78,11.78,0,0,0,8.65-3.43L280,57.77c-4.41,6.13-11.08,9.28-19.64,9.28-15.42,0-25-10.36-25-23.79s9.73-23.79,24-23.79c13.16,0,22.9,10.18,22.9,23.79a26.33,26.33,0,0,1-.54,5.41h-32c1.71,4.68,5.86,6.31,10.82,6.31"/><path class="cls-3" d="M17.62,112c0,3.4-3,5.88-7.42,5.88-4.15,0-6.89-1.94-7.88-4.6l1.78-1c.75,2.24,3,3.65,6.1,3.65,2.9,0,5.35-1.28,5.35-3.89,0-5.65-12.57-2.41-12.57-9.88,0-3.27,2.82-5.89,7-5.89,3.36,0,5.93,1.62,7,4.15l-1.74,1A5.41,5.41,0,0,0,10,98.26c-2.69,0-5,1.41-5,3.89,0,5.56,12.56,2.29,12.56,9.88"/><path class="cls-3" d="M41.4,106.14H58.07c-.45-5.06-4-7.88-8.09-7.88a8.35,8.35,0,0,0-8.58,7.88m18.83,1c0,.33,0,.67,0,1H41.4a8.44,8.44,0,0,0,8.79,7.75,7.9,7.9,0,0,0,7.18-3.77l1.82,1.08a10.21,10.21,0,0,1-9,4.68A10.83,10.83,0,0,1,50,96.26c6.31,0,10.25,5.23,10.25,10.91"/><path class="cls-3" d="M92.35,96.43v2c-3.56,0-6.92,2.2-6.92,7.51v11.53H83.35V96.72h2.08v4.07a7,7,0,0,1,6.92-4.36"/><polygon class="cls-3" points="133.29 96.72 124.54 117.46 122.01 117.46 113.22 96.72 115.46 96.72 123.26 115.3 131.1 96.72 133.29 96.72"/><path class="cls-3" d="M155.25,96.72h2.08v20.74h-2.08ZM154.63,90a1.66,1.66,0,1,1,1.66,1.66A1.65,1.65,0,0,1,154.63,90"/><path class="cls-3" d="M180.45,107.09a10.62,10.62,0,0,1,10.91-10.83,9.72,9.72,0,0,1,9,5.31l-1.7,1a7.88,7.88,0,0,0-7.34-4.31,8.83,8.83,0,0,0,0,17.66,8.28,8.28,0,0,0,7.46-4.31l1.75,1a10.2,10.2,0,0,1-9.21,5.26,10.61,10.61,0,0,1-10.91-10.82"/><path class="cls-3" d="M223.91,106.14h16.68c-.46-5.06-4-7.88-8.09-7.88a8.36,8.36,0,0,0-8.59,7.88m18.83,1c0,.33,0,.67,0,1H223.91a8.45,8.45,0,0,0,8.8,7.75,7.87,7.87,0,0,0,7.17-3.77l1.83,1.08a10.22,10.22,0,0,1-9,4.68,10.83,10.83,0,0,1-.17-21.65c6.3,0,10.24,5.23,10.24,10.91"/><path class="cls-3" d="M279.54,112c0,3.4-3,5.88-7.42,5.88-4.15,0-6.89-1.94-7.88-4.6l1.78-1c.75,2.24,3,3.65,6.1,3.65,2.9,0,5.35-1.28,5.35-3.89,0-5.65-12.57-2.41-12.57-9.88,0-3.27,2.82-5.89,7.05-5.89,3.36,0,5.93,1.62,7.05,4.15l-1.74,1A5.41,5.41,0,0,0,272,98.26c-2.69,0-5,1.41-5,3.89,0,5.56,12.56,2.29,12.56,9.88"/></g></g></svg>