<svg aria-hidden="true" style="position: absolute; width: 0; height: 0; overflow: hidden;" version="1.1" xmlns="http://www.w3.org/2000/svg" xmlns:xlink="http://www.w3.org/1999/xlink">
<defs>
<symbol id="icon-arrow-with-circle-down" viewBox="0 0 20 20">
<path d="M10 0.4c-5.303 0-9.601 4.298-9.601 9.6 0 5.303 4.298 9.601 9.601 9.601 5.301 0 9.6-4.298 9.6-9.601s-4.299-9.6-9.6-9.6zM9.999 17.6c-4.197 0-7.6-3.402-7.6-7.6s3.402-7.6 7.6-7.6 7.601 3.403 7.601 7.6-3.404 7.6-7.601 7.6zM12 6h-4v4h-2.5l4.5 4.5 4.5-4.5h-2.5v-4z"></path>
</symbol>
<symbol id="icon-arrow-with-circle-left" viewBox="0 0 20 20">
<path d="M10 0.4c-5.303 0-9.601 4.298-9.601 9.6 0 5.303 4.298 9.601 9.601 9.601 5.301 0 9.6-4.298 9.6-9.601s-4.299-9.6-9.6-9.6zM9.999 17.6c-4.197 0-7.6-3.402-7.6-7.6s3.402-7.6 7.6-7.6 7.601 3.403 7.601 7.6-3.404 7.6-7.601 7.6zM10 5.5l-4.5 4.5 4.5 4.5v-2.5h4v-4h-4v-2.5z"></path>
</symbol>
<symbol id="icon-arrow-with-circle-right" viewBox="0 0 20 20">
<path d="M10 0.4c-5.303 0-9.601 4.298-9.601 9.6 0 5.303 4.298 9.601 9.601 9.601 5.301 0 9.6-4.298 9.6-9.601s-4.299-9.6-9.6-9.6zM9.999 17.6c-4.197 0-7.6-3.402-7.6-7.6s3.402-7.6 7.6-7.6 7.601 3.403 7.601 7.6-3.404 7.6-7.601 7.6zM10 8h-4v4h4v2.5l4.5-4.5-4.5-4.5v2.5z"></path>
</symbol>
<symbol id="icon-arrow-with-circle-up" viewBox="0 0 20 20">
<path d="M10 0.4c-5.303 0-9.601 4.298-9.601 9.6 0 5.303 4.298 9.601 9.601 9.601 5.301 0 9.6-4.298 9.6-9.601s-4.299-9.6-9.6-9.6zM9.999 17.6c-4.197 0-7.6-3.402-7.6-7.6s3.402-7.6 7.6-7.6 7.601 3.403 7.601 7.6-3.404 7.6-7.601 7.6zM10 5.5l4.5 4.5h-2.5v4h-4v-4h-2.5l4.5-4.5z"></path>
</symbol>
<symbol id="icon-bookmark" viewBox="0 0 20 20">
<path d="M14 2v17l-4-4-4 4v-17c0-0.553 0.585-1.020 1-1h6c0.689-0.020 1 0.447 1 1z"></path>
</symbol>
<symbol id="icon-chevron-thin-down" viewBox="0 0 20 20">
<path d="M17.418 6.109c0.272-0.268 0.709-0.268 0.979 0s0.271 0.701 0 0.969l-7.908 7.83c-0.27 0.268-0.707 0.268-0.979 0l-7.908-7.83c-0.27-0.268-0.27-0.701 0-0.969s0.709-0.268 0.979 0l7.419 7.141 7.418-7.141z"></path>
</symbol>
<symbol id="icon-chevron-thin-left" viewBox="0 0 20 20">
<path d="M13.891 17.418c0.268 0.272 0.268 0.709 0 0.979s-0.701 0.271-0.969 0l-7.83-7.908c-0.268-0.27-0.268-0.707 0-0.979l7.83-7.908c0.268-0.27 0.701-0.27 0.969 0s0.268 0.709 0 0.979l-7.141 7.419 7.141 7.418z"></path>
</symbol>
<symbol id="icon-chevron-thin-right" viewBox="0 0 20 20">
<path d="M13.25 10l-7.141-7.42c-0.268-0.27-0.268-0.707 0-0.979 0.268-0.27 0.701-0.27 0.969 0l7.83 7.908c0.268 0.271 0.268 0.709 0 0.979l-7.83 7.908c-0.268 0.271-0.701 0.27-0.969 0s-0.268-0.707 0-0.979l7.141-7.417z"></path>
</symbol>
<symbol id="icon-chevron-thin-up" viewBox="0 0 20 20">
<path d="M2.582 13.891c-0.272 0.268-0.709 0.268-0.979 0s-0.271-0.701 0-0.969l7.908-7.83c0.27-0.268 0.707-0.268 0.979 0l7.908 7.83c0.27 0.268 0.27 0.701 0 0.969s-0.709 0.268-0.978 0l-7.42-7.141-7.418 7.141z"></path>
</symbol>
<symbol id="icon-chevron-up" viewBox="0 0 20 20">
<path d="M15.484 12.452c-0.436 0.446-1.043 0.481-1.576 0l-3.908-3.747-3.908 3.747c-0.533 0.481-1.141 0.446-1.574 0-0.436-0.445-0.408-1.197 0-1.615 0.406-0.418 4.695-4.502 4.695-4.502 0.217-0.223 0.502-0.335 0.787-0.335s0.57 0.112 0.789 0.335c0 0 4.287 4.084 4.695 4.502s0.436 1.17 0 1.615z"></path>
</symbol>
<symbol id="icon-chevron-with-circle-down" viewBox="0 0 20 20">
<path d="M12.505 8.698l-2.505 2.302-2.506-2.302c-0.198-0.196-0.518-0.196-0.718 0-0.197 0.196-0.197 0.515 0 0.71l2.864 2.807c0.199 0.196 0.52 0.196 0.717 0l2.864-2.807c0.199-0.195 0.198-0.514 0-0.71-0.197-0.196-0.517-0.196-0.716 0zM10 0.4c-5.302 0-9.6 4.298-9.6 9.6 0 5.303 4.298 9.6 9.6 9.6s9.6-4.297 9.6-9.6c0-5.302-4.298-9.6-9.6-9.6zM10 18.354c-4.615 0-8.354-3.74-8.354-8.354s3.739-8.354 8.354-8.354c4.613 0 8.354 3.74 8.354 8.354s-3.741 8.354-8.354 8.354z"></path>
</symbol>
<symbol id="icon-chevron-with-circle-left" viewBox="0 0 20 20">
<path d="M11.302 6.776c-0.196-0.197-0.515-0.197-0.71 0l-2.807 2.865c-0.196 0.199-0.196 0.52 0 0.717l2.807 2.864c0.195 0.199 0.514 0.198 0.71 0 0.196-0.197 0.196-0.518 0-0.717l-2.302-2.505 2.302-2.506c0.196-0.198 0.196-0.518 0-0.718zM10 0.4c-5.302 0-9.6 4.298-9.6 9.6 0 5.303 4.298 9.6 9.6 9.6s9.6-4.297 9.6-9.6c0-5.302-4.298-9.6-9.6-9.6zM10 18.354c-4.615 0-8.354-3.74-8.354-8.354s3.739-8.354 8.354-8.354c4.613 0 8.354 3.74 8.354 8.354s-3.741 8.354-8.354 8.354z"></path>
</symbol>
<symbol id="icon-chevron-with-circle-right" viewBox="0 0 20 20">
<path d="M11 10l-2.302-2.506c-0.196-0.198-0.196-0.519 0-0.718 0.196-0.197 0.515-0.197 0.71 0l2.807 2.864c0.196 0.199 0.196 0.52 0 0.717l-2.807 2.864c-0.195 0.199-0.514 0.198-0.71 0-0.196-0.197-0.196-0.518 0-0.717l2.302-2.504zM10 0.4c5.302 0 9.6 4.298 9.6 9.6 0 5.303-4.298 9.6-9.6 9.6s-9.6-4.297-9.6-9.6c0-5.302 4.298-9.6 9.6-9.6zM10 18.354c4.613 0 8.354-3.74 8.354-8.354s-3.741-8.354-8.354-8.354c-4.615 0-8.354 3.74-8.354 8.354s3.739 8.354 8.354 8.354z"></path>
</symbol>
<symbol id="icon-chevron-with-circle-up" viewBox="0 0 20 20">
<path d="M10.359 7.785c-0.199-0.196-0.52-0.196-0.717 0l-2.864 2.807c-0.199 0.195-0.198 0.514 0 0.71 0.197 0.196 0.518 0.196 0.717 0l2.505-2.302 2.506 2.302c0.198 0.196 0.518 0.196 0.718 0 0.197-0.196 0.197-0.515 0-0.71l-2.865-2.807zM10 0.4c-5.302 0-9.6 4.298-9.6 9.6 0 5.303 4.298 9.6 9.6 9.6s9.6-4.297 9.6-9.6c0-5.302-4.298-9.6-9.6-9.6zM10 18.354c-4.615 0-8.354-3.74-8.354-8.354s3.739-8.354 8.354-8.354c4.613 0 8.354 3.74 8.354 8.354s-3.741 8.354-8.354 8.354z"></path>
</symbol>
<symbol id="icon-aircraft-take-off" viewBox="0 0 20 20">
<path d="M19.87 6.453c0.119 0.257 0.127 1.29-4.884 3.642l-4.913 2.306c-1.71 0.803-4.191 1.859-5.285 2.151-0.766 0.204-1.497-0.316-1.497-0.316s-2.206-1.975-2.792-2.419c-0.585-0.444-0.535-0.67 0.215-0.91 0.467-0.149 3.13 0.493 4.265 0.78 1.339-0.8 2.562-1.486 3.141-1.798-1.396-1.033-4.008-2.962-4.841-3.55-0.799-0.565 0.010-0.768 0.010-0.768 0.368-0.099 1.162-0.228 1.562-0.144 2.721 0.569 7.263 2.071 7.611 2.186 0.832-0.436 2.128-1.092 2.922-1.465 2.075-0.974 4.327-0.037 4.486 0.305z"></path>
</symbol>
<symbol id="icon-camera" viewBox="0 0 20 20">
<path d="M10 8c-1.657 0-3 1.344-3 3s1.343 3 3 3c1.656 0 3-1.344 3-3s-1.344-3-3-3zM18 5h-2.4c-0.33 0-0.686-0.256-0.789-0.57l-0.621-1.861c-0.105-0.313-0.459-0.569-0.79-0.569h-6.8c-0.33 0-0.686 0.256-0.789 0.568l-0.622 1.862c-0.104 0.314-0.459 0.57-0.789 0.57h-2.4c-1.1 0-2 0.9-2 2v9c0 1.1 0.9 2 2 2h16c1.1 0 2-0.9 2-2v-9c0-1.1-0.9-2-2-2zM10 16c-2.762 0-5-2.238-5-5s2.238-5 5-5c2.761 0 5 2.238 5 5s-2.239 5-5 5zM17.5 8.2c-0.387 0-0.7-0.314-0.7-0.701 0-0.385 0.313-0.7 0.7-0.7s0.7 0.314 0.7 0.7c0 0.387-0.313 0.701-0.7 0.701z"></path>
</symbol>
<symbol id="icon-chat" viewBox="0 0 20 20">
<path d="M5.8 12.2v-6.2h-3.8c-1.1 0-2 0.9-2 2v6c0 1.1 0.9 2 2 2h1v3l3-3h5c1.1 0 2-0.9 2-2v-1.82c-0.064 0.014-0.132 0.021-0.2 0.021l-7-0.001zM18 1h-9c-1.1 0-2 0.9-2 2v8h7l3 3v-3h1c1.1 0 2-0.899 2-2v-6c0-1.1-0.9-2-2-2z"></path>
</symbol>
<symbol id="icon-home" viewBox="0 0 20 20">
<path d="M18.672 11h-1.672v6c0 0.445-0.194 1-1 1h-4v-6h-4v6h-4c-0.806 0-1-0.555-1-1v-6h-1.672c-0.598 0-0.47-0.324-0.060-0.748l8.024-8.032c0.195-0.202 0.451-0.302 0.708-0.312 0.257 0.010 0.513 0.109 0.708 0.312l8.023 8.031c0.411 0.425 0.539 0.749-0.059 0.749z"></path>
</symbol>
<symbol id="icon-key" viewBox="0 0 20 20">
<path d="M17.691 4.725c-0.503-2.977-3.22-4.967-6.069-4.441s-5.256 2.816-4.753 5.795c0.107 0.641 0.408 1.644 0.763 2.365l-5.175 7.723c-0.191 0.285-0.299 0.799-0.242 1.141l0.333 1.971c0.058 0.342 0.372 0.572 0.7 0.514l1.516-0.281c0.328-0.059 0.744-0.348 0.924-0.639l2.047-3.311 0.018-0.022 1.386-0.256 2.39-3.879c0.785 0.139 1.912 0.092 2.578-0.031 2.848-0.526 4.087-3.67 3.584-6.649zM15.166 6.252c-0.784 1.17-1.584 0.346-2.703-0.475-1.119-0.818-2.135-1.322-1.352-2.492s2.326-1.455 3.447-0.635c1.12 0.819 1.391 2.432 0.608 3.602z"></path>
</symbol>
<symbol id="icon-laptop" viewBox="0 0 20 20">
<path d="M19.754 15.631c-0.247-0.371-1.754-2.631-1.754-2.631v-9c0-1.102-0.9-2-2-2h-12c-1.101 0-2 0.898-2 2v9c0 0-1.507 2.26-1.754 2.631-0.246 0.369-0.246 0.582-0.246 0.869v0.5c0 0.5 0.5 1 0.999 1h18.002c0.499 0 0.999-0.5 0.999-1v-0.5c0-0.287 0-0.5-0.246-0.869zM7 16l0.6-1h4.8l0.6 1h-6zM16 12h-12v-8h12v8z"></path>
</symbol>
<symbol id="icon-location-pin" viewBox="0 0 20 20">
<path d="M10 2.009c-2.762 0-5 2.229-5 4.99 0 4.774 5 11 5 11s5-6.227 5-11c0-2.76-2.238-4.99-5-4.99zM10 9.76c-1.492 0-2.7-1.209-2.7-2.7s1.208-2.7 2.7-2.7c1.49 0 2.699 1.209 2.699 2.7s-1.209 2.7-2.699 2.7z"></path>
</symbol>
<symbol id="icon-location" viewBox="0 0 20 20">
<path d="M19.367 18.102l-1.367-4.102h-1.5l0.833 4h-14.666l0.833-4h-1.5l-1.368 4.102c-0.347 1.044 0.268 1.898 1.368 1.898h16c1.1 0 1.715-0.854 1.367-1.898zM15 5c0-2.761-2.238-5-5-5s-5 2.239-5 5c0 4.775 5 10 5 10s5-5.225 5-10zM7.3 5.060c0-1.491 1.208-2.699 2.7-2.699s2.7 1.208 2.7 2.699c0 1.492-1.209 2.7-2.7 2.7s-2.7-1.209-2.7-2.7z"></path>
</symbol>
<symbol id="icon-magnifying-glass" viewBox="0 0 20 20">
<path d="M17.545 15.467l-3.779-3.779c0.57-0.935 0.898-2.035 0.898-3.21 0-3.417-2.961-6.377-6.378-6.377s-6.186 2.769-6.186 6.186c0 3.416 2.961 6.377 6.377 6.377 1.137 0 2.2-0.309 3.115-0.844l3.799 3.801c0.372 0.371 0.975 0.371 1.346 0l0.943-0.943c0.371-0.371 0.236-0.84-0.135-1.211zM4.004 8.287c0-2.366 1.917-4.283 4.282-4.283s4.474 2.107 4.474 4.474c0 2.365-1.918 4.283-4.283 4.283s-4.473-2.109-4.473-4.474z"></path>
</symbol>
<symbol id="icon-map" viewBox="0 0 20 20">
<path d="M19.447 3.718l-6-3c-0.281-0.141-0.613-0.141-0.895 0l-5.63 2.815-5.606-1.869c-0.306-0.102-0.64-0.051-0.901 0.138s-0.415 0.49-0.415 0.811v13.001c0 0.379 0.214 0.725 0.553 0.894l6 3c0.141 0.070 0.294 0.106 0.447 0.106s0.307-0.035 0.447-0.106l5.63-2.814 5.606 1.869c0.305 0.1 0.64 0.049 0.901-0.139s0.415-0.49 0.415-0.81v-13.002c0.001-0.379-0.213-0.725-0.552-0.894zM8 5.231l4-2v11.763l-4 2v-11.763zM2 4l4 1.333v11.661l-4-2v-10.994zM18 16.227l-4-1.334v-11.662l4 2v10.996z"></path>
</symbol>
<symbol id="icon-mobile" viewBox="0 0 20 20">
<path d="M14.004 0h-8.008c-1.102 0-1.996 0.894-1.996 1.996v16.007c0 1.103 0.894 1.997 1.996 1.997h8.007c1.103 0 1.997-0.894 1.997-1.996v-16.008c0-1.102-0.894-1.996-1.996-1.996zM10 19c-0.69 0-1.25-0.447-1.25-1s0.56-1 1.25-1 1.25 0.447 1.25 1-0.56 1-1.25 1zM14 16h-8v-14h8v14z"></path>
</symbol>
<symbol id="icon-paper-plane" viewBox="0 0 20 20">
<path d="M18.64 2.634c-0.344 0.121-17.321 6.104-17.656 6.222-0.284 0.1-0.347 0.345-0.010 0.479 0.401 0.161 3.796 1.521 3.796 1.521v0l2.25 0.901c0 0 10.838-7.958 10.984-8.066 0.148-0.108 0.318 0.095 0.211 0.211s-7.871 8.513-7.871 8.513v0.002l-0.452 0.503 0.599 0.322c0 0 4.65 2.504 4.982 2.682 0.291 0.156 0.668 0.027 0.752-0.334 0.099-0.426 2.845-12.261 2.906-12.525 0.079-0.343-0.148-0.552-0.491-0.431zM7 17.162c0 0.246 0.139 0.315 0.331 0.141 0.251-0.229 2.85-2.561 2.85-2.561l-3.181-1.644v4.064z"></path>
</symbol>
<symbol id="icon-phone" viewBox="0 0 20 20">
<path d="M11.229 11.229c-1.583 1.582-3.417 3.096-4.142 2.371-1.037-1.037-1.677-1.941-3.965-0.102-2.287 1.838-0.53 3.064 0.475 4.068 1.16 1.16 5.484 0.062 9.758-4.211 4.273-4.274 5.368-8.598 4.207-9.758-1.005-1.006-2.225-2.762-4.063-0.475s-0.936 2.927 0.103 3.965c0.722 0.725-0.791 2.559-2.373 4.142z"></path>
</symbol>
<symbol id="icon-rocket" viewBox="0 0 20 20">
<path d="M11.933 13.069c0 0 7.059-5.094 6.276-10.924-0.017-0.127-0.059-0.213-0.112-0.268-0.054-0.055-0.137-0.098-0.263-0.115-5.697-0.801-10.674 6.422-10.674 6.422-4.318-0.517-4.004 0.344-5.974 5.076-0.377 0.902 0.234 1.213 0.904 0.959 0.67-0.252 2.148-0.811 2.148-0.811l2.59 2.648c0 0-0.546 1.514-0.793 2.199s0.055 1.311 0.938 0.926c4.624-2.016 5.466-1.694 4.96-6.112zM12.942 7.153c-0.598-0.613-0.598-1.604 0-2.217 0.598-0.611 1.567-0.611 2.166 0s0.598 1.603 0 2.217c-0.599 0.611-1.569 0.611-2.166 0z"></path>
</symbol>
<symbol id="icon-star" viewBox="0 0 20 20">
<path d="M10 1.3l2.388 6.722h6.412l-5.232 3.948 1.871 6.928-5.439-4.154-5.438 4.154 1.87-6.928-5.233-3.948h6.412l2.389-6.722z"></path>
</symbol>
<symbol id="icon-tools" viewBox="0 0 20 20">
<path d="M3.135 6.89c0.933-0.725 1.707-0.225 2.74 0.971 0.116 0.135 0.272-0.023 0.361-0.1 0.088-0.078 1.451-1.305 1.518-1.361 0.066-0.059 0.146-0.169 0.041-0.292-0.107-0.123-0.494-0.625-0.743-0.951-1.808-2.365 4.946-3.969 3.909-3.994-0.528-0.014-2.646-0.039-2.963-0.004-1.283 0.135-2.894 1.334-3.705 1.893-1.061 0.726-1.457 1.152-1.522 1.211-0.3 0.262-0.048 0.867-0.592 1.344-0.575 0.503-0.934 0.122-1.267 0.414-0.165 0.146-0.627 0.492-0.759 0.607-0.133 0.117-0.157 0.314-0.021 0.471 0 0 1.264 1.396 1.37 1.52 0.105 0.122 0.391 0.228 0.567 0.071 0.177-0.156 0.632-0.553 0.708-0.623 0.078-0.066-0.050-0.861 0.358-1.177zM8.843 7.407c-0.12-0.139-0.269-0.143-0.397-0.029l-1.434 1.252c-0.113 0.1-0.129 0.283-0.027 0.4l8.294 9.439c0.194 0.223 0.53 0.246 0.751 0.053l0.97-0.813c0.222-0.195 0.245-0.533 0.052-0.758l-8.209-9.544zM19.902 3.39c-0.074-0.494-0.33-0.391-0.463-0.182-0.133 0.211-0.721 1.102-0.963 1.506-0.24 0.4-0.832 1.191-1.934 0.41-1.148-0.811-0.749-1.377-0.549-1.758 0.201-0.383 0.818-1.457 0.907-1.59 0.089-0.135-0.015-0.527-0.371-0.363s-2.523 1.025-2.823 2.26c-0.307 1.256 0.257 2.379-0.85 3.494l-1.343 1.4 1.349 1.566 1.654-1.57c0.394-0.396 1.236-0.781 1.998-0.607 1.633 0.369 2.524-0.244 3.061-1.258 0.482-0.906 0.402-2.814 0.327-3.308zM2.739 17.053c-0.208 0.209-0.208 0.549 0 0.758l0.951 0.93c0.208 0.209 0.538 0.121 0.746-0.088l4.907-4.824-1.503-1.714-5.101 4.938z"></path>
</symbol>
<symbol id="icon-circle-up" viewBox="0 0 32 32">
<path d="M0 16c0 8.837 7.163 16 16 16s16-7.163 16-16-7.163-16-16-16-16 7.163-16 16zM29 16c0 7.18-5.82 13-13 13s-13-5.82-13-13 5.82-13 13-13 13 5.82 13 13z"></path>
<path d="M22.086 20.914l2.829-2.829-8.914-8.914-8.914 8.914 2.828 2.828 6.086-6.086z"></path>
</symbol>
<symbol id="icon-circle-right" viewBox="0 0 32 32">
<path d="M16 0c-8.837 0-16 7.163-16 16s7.163 16 16 16 16-7.163 16-16-7.163-16-16-16zM16 29c-7.18 0-13-5.82-13-13s5.82-13 13-13 13 5.82 13 13-5.82 13-13 13z"></path>
<path d="M11.086 22.086l2.829 2.829 8.914-8.914-8.914-8.914-2.828 2.828 6.086 6.086z"></path>
</symbol>
<symbol id="icon-circle-down" viewBox="0 0 32 32">
<path d="M32 16c0-8.837-7.163-16-16-16s-16 7.163-16 16 7.163 16 16 16 16-7.163 16-16zM3 16c0-7.18 5.82-13 13-13s13 5.82 13 13-5.82 13-13 13-13-5.82-13-13z"></path>
<path d="M9.914 11.086l-2.829 2.829 8.914 8.914 8.914-8.914-2.828-2.828-6.086 6.086z"></path>
</symbol>
<symbol id="icon-circle-left" viewBox="0 0 32 32">
<path d="M16 32c8.837 0 16-7.163 16-16s-7.163-16-16-16-16 7.163-16 16 7.163 16 16 16zM16 3c7.18 0 13 5.82 13 13s-5.82 13-13 13-13-5.82-13-13 5.82-13 13-13z"></path>
<path d="M20.914 9.914l-2.829-2.829-8.914 8.914 8.914 8.914 2.828-2.828-6.086-6.086z"></path>
</symbol>
<symbol id="icon-facebook" viewBox="0 0 32 32">
<path d="M19 6h5v-6h-5c-3.86 0-7 3.14-7 7v3h-4v6h4v16h6v-16h5l1-6h-6v-3c0-0.542 0.458-1 1-1z"></path>
</symbol>
<symbol id="icon-facebook2" viewBox="0 0 32 32">
<path d="M29 0h-26c-1.65 0-3 1.35-3 3v26c0 1.65 1.35 3 3 3h13v-14h-4v-4h4v-2c0-3.306 2.694-6 6-6h4v4h-4c-1.1 0-2 0.9-2 2v2h6l-1 4h-5v14h9c1.65 0 3-1.35 3-3v-26c0-1.65-1.35-3-3-3z"></path>
</symbol>
<symbol id="icon-whatsapp" viewBox="0 0 32 32">
<path d="M27.281 4.65c-2.994-3-6.975-4.65-11.219-4.65-8.738 0-15.85 7.112-15.85 15.856 0 2.794 0.731 5.525 2.119 7.925l-2.25 8.219 8.406-2.206c2.319 1.262 4.925 1.931 7.575 1.931h0.006c0 0 0 0 0 0 8.738 0 15.856-7.113 15.856-15.856 0-4.238-1.65-8.219-4.644-11.219zM16.069 29.050v0c-2.369 0-4.688-0.637-6.713-1.837l-0.481-0.288-4.987 1.306 1.331-4.863-0.313-0.5c-1.325-2.094-2.019-4.519-2.019-7.012 0-7.269 5.912-13.181 13.188-13.181 3.519 0 6.831 1.375 9.319 3.862 2.488 2.494 3.856 5.8 3.856 9.325-0.006 7.275-5.919 13.188-13.181 13.188zM23.294 19.175c-0.394-0.2-2.344-1.156-2.706-1.288s-0.625-0.2-0.894 0.2c-0.262 0.394-1.025 1.288-1.256 1.556-0.231 0.262-0.462 0.3-0.856 0.1s-1.675-0.619-3.188-1.969c-1.175-1.050-1.975-2.35-2.206-2.744s-0.025-0.613 0.175-0.806c0.181-0.175 0.394-0.463 0.594-0.694s0.262-0.394 0.394-0.662c0.131-0.262 0.069-0.494-0.031-0.694s-0.894-2.15-1.219-2.944c-0.319-0.775-0.65-0.669-0.894-0.681-0.231-0.012-0.494-0.012-0.756-0.012s-0.694 0.1-1.056 0.494c-0.363 0.394-1.387 1.356-1.387 3.306s1.419 3.831 1.619 4.1c0.2 0.262 2.794 4.269 6.769 5.981 0.944 0.406 1.681 0.65 2.256 0.837 0.95 0.3 1.813 0.256 2.494 0.156 0.762-0.113 2.344-0.956 2.675-1.881s0.331-1.719 0.231-1.881c-0.094-0.175-0.356-0.275-0.756-0.475z"></path>
</symbol>
<symbol id="icon-telegram" viewBox="0 0 32 32">
<path d="M16 0c-8.838 0-16 7.162-16 16s7.162 16 16 16 16-7.163 16-16-7.163-16-16-16zM23.863 10.969l-2.625 12.369c-0.181 0.881-0.712 1.087-1.45 0.681l-4-2.956-1.919 1.869c-0.225 0.219-0.4 0.4-0.8 0.4-0.519 0-0.431-0.194-0.606-0.688l-1.363-4.475-3.956-1.231c-0.856-0.262-0.862-0.85 0.194-1.269l15.412-5.95c0.7-0.319 1.381 0.169 1.113 1.25z"></path>
</symbol>
<symbol id="icon-twitter" viewBox="0 0 32 32">
<path d="M32 7.075c-1.175 0.525-2.444 0.875-3.769 1.031 1.356-0.813 2.394-2.1 2.887-3.631-1.269 0.75-2.675 1.3-4.169 1.594-1.2-1.275-2.906-2.069-4.794-2.069-3.625 0-6.563 2.938-6.563 6.563 0 0.512 0.056 1.012 0.169 1.494-5.456-0.275-10.294-2.888-13.531-6.862-0.563 0.969-0.887 2.1-0.887 3.3 0 2.275 1.156 4.287 2.919 5.463-1.075-0.031-2.087-0.331-2.975-0.819 0 0.025 0 0.056 0 0.081 0 3.181 2.263 5.838 5.269 6.437-0.55 0.15-1.131 0.231-1.731 0.231-0.425 0-0.831-0.044-1.237-0.119 0.838 2.606 3.263 4.506 6.131 4.563-2.25 1.762-5.075 2.813-8.156 2.813-0.531 0-1.050-0.031-1.569-0.094 2.913 1.869 6.362 2.95 10.069 2.95 12.075 0 18.681-10.006 18.681-18.681 0-0.287-0.006-0.569-0.019-0.85 1.281-0.919 2.394-2.075 3.275-3.394z"></path>
</symbol>
<symbol id="icon-wordpress" viewBox="0 0 32 32">
<path d="M4 16c0 4.626 2.76 8.624 6.763 10.518l-5.724-15.274c-0.666 1.453-1.039 3.062-1.039 4.756zM24.101 15.41c0-1.445-0.533-2.445-0.989-3.223-0.608-0.963-1.179-1.778-1.179-2.741 0-1.074 0.836-2.074 2.015-2.074 0.053 0 0.104 0.006 0.155 0.009-2.135-1.905-4.979-3.069-8.103-3.069-4.192 0-7.881 2.095-10.026 5.268 0.282 0.009 0.547 0.014 0.772 0.014 1.255 0 3.198-0.149 3.198-0.149 0.647-0.037 0.723 0.889 0.077 0.963 0 0-0.65 0.074-1.373 0.111l4.37 12.66 2.626-7.671-1.869-4.989c-0.646-0.037-1.259-0.111-1.259-0.111-0.647-0.037-0.571-1 0.076-0.963 0 0 1.981 0.149 3.16 0.149 1.255 0 3.198-0.149 3.198-0.149 0.647-0.037 0.723 0.889 0.076 0.963 0 0-0.651 0.074-1.373 0.111l4.337 12.563 1.197-3.895c0.518-1.617 0.913-2.778 0.913-3.778zM16.211 17.022l-3.601 10.189c1.075 0.308 2.212 0.476 3.39 0.476 1.397 0 2.738-0.235 3.985-0.663-0.032-0.050-0.062-0.103-0.086-0.161l-3.688-9.842zM26.53 10.393c0.052 0.372 0.081 0.771 0.081 1.202 0 1.185-0.228 2.519-0.913 4.186l-3.665 10.321c3.568-2.026 5.967-5.79 5.967-10.102 0-2.032-0.533-3.943-1.47-5.607zM16 0c-8.837 0-16 7.163-16 16s7.163 16 16 16 16-7.163 16-16-7.163-16-16-16zM16 30c-7.732 0-14-6.268-14-14s6.268-14 14-14 14 6.268 14 14-6.268 14-14 14z"></path>
</symbol>
</defs>
</svg>
